<mxfile host="app.diagrams.net" modified="2024-03-10T18:04:55.574Z" agent="Mozilla/5.0 (X11; Linux x86_64) AppleWebKit/537.36 (KHTML, like Gecko) Chrome/122.0.0.0 Safari/537.36" etag="6LonwODPje6rVcgTxDph" version="24.0.4" type="device">
  <diagram name="Page-1" id="q292WNFpsGVUspPvAuap">
    <mxGraphModel dx="1839" dy="520" grid="1" gridSize="10" guides="1" tooltips="1" connect="1" arrows="1" fold="1" page="1" pageScale="1" pageWidth="850" pageHeight="1100" math="0" shadow="0">
      <root>
        <mxCell id="0" />
        <mxCell id="1" parent="0" />
        <mxCell id="S25aGv_purP_b8vN17h_-1" value="Veiculo" style="rounded=0;whiteSpace=wrap;html=1;" parent="1" vertex="1">
          <mxGeometry x="-760" y="260" width="70" height="20" as="geometry" />
        </mxCell>
        <mxCell id="S25aGv_purP_b8vN17h_-48" style="edgeStyle=orthogonalEdgeStyle;rounded=0;orthogonalLoop=1;jettySize=auto;html=1;exitX=0.5;exitY=0;exitDx=0;exitDy=0;entryX=0.5;entryY=1;entryDx=0;entryDy=0;" parent="1" source="S25aGv_purP_b8vN17h_-22" target="S25aGv_purP_b8vN17h_-3" edge="1">
          <mxGeometry relative="1" as="geometry">
            <Array as="points">
              <mxPoint x="-555" y="340" />
              <mxPoint x="-725" y="340" />
            </Array>
          </mxGeometry>
        </mxCell>
        <mxCell id="S25aGv_purP_b8vN17h_-3" value="matricula" style="rounded=0;whiteSpace=wrap;html=1;fontStyle=4" parent="1" vertex="1">
          <mxGeometry x="-760" y="280" width="70" height="40" as="geometry" />
        </mxCell>
        <mxCell id="S25aGv_purP_b8vN17h_-4" value="marca" style="rounded=0;whiteSpace=wrap;html=1;" parent="1" vertex="1">
          <mxGeometry x="-690" y="280" width="70" height="40" as="geometry" />
        </mxCell>
        <mxCell id="S25aGv_purP_b8vN17h_-5" value="ano" style="rounded=0;whiteSpace=wrap;html=1;" parent="1" vertex="1">
          <mxGeometry x="-620" y="280" width="70" height="40" as="geometry" />
        </mxCell>
        <mxCell id="UCRZe9t5fJFLGoO7BpiH-2" style="edgeStyle=orthogonalEdgeStyle;rounded=0;orthogonalLoop=1;jettySize=auto;html=1;" edge="1" parent="1" source="S25aGv_purP_b8vN17h_-6" target="S25aGv_purP_b8vN17h_-14">
          <mxGeometry relative="1" as="geometry">
            <Array as="points">
              <mxPoint x="-490" y="340" />
              <mxPoint x="-350" y="340" />
            </Array>
          </mxGeometry>
        </mxCell>
        <mxCell id="S25aGv_purP_b8vN17h_-6" value="Tipo_VeÃ­culo-codigo" style="rounded=0;whiteSpace=wrap;html=1;" parent="1" vertex="1">
          <mxGeometry x="-550" y="280" width="120" height="40" as="geometry" />
        </mxCell>
        <mxCell id="S25aGv_purP_b8vN17h_-13" value="Tipo_Veiculo" style="rounded=0;whiteSpace=wrap;html=1;" parent="1" vertex="1">
          <mxGeometry x="-400" y="20" width="80" height="20" as="geometry" />
        </mxCell>
        <mxCell id="S25aGv_purP_b8vN17h_-63" style="edgeStyle=orthogonalEdgeStyle;rounded=0;orthogonalLoop=1;jettySize=auto;html=1;exitX=0.5;exitY=1;exitDx=0;exitDy=0;" parent="1" source="S25aGv_purP_b8vN17h_-31" target="S25aGv_purP_b8vN17h_-14" edge="1">
          <mxGeometry relative="1" as="geometry">
            <Array as="points">
              <mxPoint x="-580" y="110" />
              <mxPoint x="-390" y="110" />
            </Array>
          </mxGeometry>
        </mxCell>
        <mxCell id="S25aGv_purP_b8vN17h_-64" style="edgeStyle=orthogonalEdgeStyle;rounded=0;orthogonalLoop=1;jettySize=auto;html=1;exitX=0.5;exitY=1;exitDx=0;exitDy=0;" parent="1" source="S25aGv_purP_b8vN17h_-32" target="S25aGv_purP_b8vN17h_-14" edge="1">
          <mxGeometry relative="1" as="geometry">
            <Array as="points">
              <mxPoint x="-500" y="110" />
              <mxPoint x="-390" y="110" />
            </Array>
          </mxGeometry>
        </mxCell>
        <mxCell id="S25aGv_purP_b8vN17h_-67" style="edgeStyle=orthogonalEdgeStyle;rounded=0;orthogonalLoop=1;jettySize=auto;html=1;exitX=0.5;exitY=1;exitDx=0;exitDy=0;" parent="1" source="S25aGv_purP_b8vN17h_-41" target="S25aGv_purP_b8vN17h_-14" edge="1">
          <mxGeometry relative="1" as="geometry">
            <Array as="points">
              <mxPoint x="-440" y="220" />
              <mxPoint x="-370" y="220" />
            </Array>
          </mxGeometry>
        </mxCell>
        <mxCell id="S25aGv_purP_b8vN17h_-14" value="codigo" style="rounded=0;whiteSpace=wrap;html=1;fontStyle=4" parent="1" vertex="1">
          <mxGeometry x="-400" y="40" width="80" height="40" as="geometry" />
        </mxCell>
        <mxCell id="S25aGv_purP_b8vN17h_-15" value="arcondicionado" style="rounded=0;whiteSpace=wrap;html=1;" parent="1" vertex="1">
          <mxGeometry x="-320" y="40" width="100" height="40" as="geometry" />
        </mxCell>
        <mxCell id="S25aGv_purP_b8vN17h_-16" value="designacao" style="rounded=0;whiteSpace=wrap;html=1;" parent="1" vertex="1">
          <mxGeometry x="-220" y="40" width="80" height="40" as="geometry" />
        </mxCell>
        <mxCell id="S25aGv_purP_b8vN17h_-18" value="Aluguer" style="rounded=0;whiteSpace=wrap;html=1;" parent="1" vertex="1">
          <mxGeometry x="-800" y="460" width="70" height="20" as="geometry" />
        </mxCell>
        <mxCell id="S25aGv_purP_b8vN17h_-19" value="numero" style="rounded=0;whiteSpace=wrap;html=1;fontStyle=4" parent="1" vertex="1">
          <mxGeometry x="-800" y="480" width="70" height="40" as="geometry" />
        </mxCell>
        <mxCell id="S25aGv_purP_b8vN17h_-20" value="data" style="rounded=0;whiteSpace=wrap;html=1;" parent="1" vertex="1">
          <mxGeometry x="-730" y="480" width="50" height="40" as="geometry" />
        </mxCell>
        <mxCell id="S25aGv_purP_b8vN17h_-21" value="duracao" style="rounded=0;whiteSpace=wrap;html=1;" parent="1" vertex="1">
          <mxGeometry x="-680" y="480" width="70" height="40" as="geometry" />
        </mxCell>
        <mxCell id="S25aGv_purP_b8vN17h_-22" value="Veiculo-matricula" style="rounded=0;whiteSpace=wrap;html=1;" parent="1" vertex="1">
          <mxGeometry x="-610" y="480" width="110" height="40" as="geometry" />
        </mxCell>
        <mxCell id="S25aGv_purP_b8vN17h_-23" value="Cliente-nif" style="rounded=0;whiteSpace=wrap;html=1;" parent="1" vertex="1">
          <mxGeometry x="-500" y="480" width="80" height="40" as="geometry" />
        </mxCell>
        <mxCell id="S25aGv_purP_b8vN17h_-24" value="Balcao-numero" style="rounded=0;whiteSpace=wrap;html=1;" parent="1" vertex="1">
          <mxGeometry x="-420" y="480" width="100" height="40" as="geometry" />
        </mxCell>
        <mxCell id="S25aGv_purP_b8vN17h_-25" value="Balcao" style="rounded=0;whiteSpace=wrap;html=1;" parent="1" vertex="1">
          <mxGeometry x="-270" y="460" width="70" height="20" as="geometry" />
        </mxCell>
        <mxCell id="S25aGv_purP_b8vN17h_-55" style="edgeStyle=orthogonalEdgeStyle;rounded=0;orthogonalLoop=1;jettySize=auto;html=1;exitX=0.5;exitY=1;exitDx=0;exitDy=0;entryX=0.5;entryY=1;entryDx=0;entryDy=0;" parent="1" source="S25aGv_purP_b8vN17h_-24" target="S25aGv_purP_b8vN17h_-26" edge="1">
          <mxGeometry relative="1" as="geometry">
            <Array as="points">
              <mxPoint x="-370" y="550" />
              <mxPoint x="-235" y="550" />
            </Array>
          </mxGeometry>
        </mxCell>
        <mxCell id="S25aGv_purP_b8vN17h_-26" value="numero" style="rounded=0;whiteSpace=wrap;html=1;fontStyle=4" parent="1" vertex="1">
          <mxGeometry x="-270" y="480" width="70" height="40" as="geometry" />
        </mxCell>
        <mxCell id="S25aGv_purP_b8vN17h_-27" value="endereco" style="rounded=0;whiteSpace=wrap;html=1;" parent="1" vertex="1">
          <mxGeometry x="-200" y="480" width="70" height="40" as="geometry" />
        </mxCell>
        <mxCell id="S25aGv_purP_b8vN17h_-28" value="nome" style="rounded=0;whiteSpace=wrap;html=1;" parent="1" vertex="1">
          <mxGeometry x="-130" y="480" width="60" height="40" as="geometry" />
        </mxCell>
        <mxCell id="S25aGv_purP_b8vN17h_-30" value="Similaridade" style="rounded=0;whiteSpace=wrap;html=1;" parent="1" vertex="1">
          <mxGeometry x="-620" y="20" width="80" height="20" as="geometry" />
        </mxCell>
        <mxCell id="S25aGv_purP_b8vN17h_-31" value="TV-codigo1" style="rounded=0;whiteSpace=wrap;html=1;fontStyle=4" parent="1" vertex="1">
          <mxGeometry x="-620" y="40" width="80" height="40" as="geometry" />
        </mxCell>
        <mxCell id="S25aGv_purP_b8vN17h_-32" value="TV-codigo2" style="rounded=0;whiteSpace=wrap;html=1;fontStyle=4" parent="1" vertex="1">
          <mxGeometry x="-540" y="40" width="80" height="40" as="geometry" />
        </mxCell>
        <mxCell id="S25aGv_purP_b8vN17h_-35" value="Ligeiro" style="rounded=0;whiteSpace=wrap;html=1;" parent="1" vertex="1">
          <mxGeometry x="-790" y="140" width="60" height="20" as="geometry" />
        </mxCell>
        <mxCell id="S25aGv_purP_b8vN17h_-36" value="id" style="rounded=0;whiteSpace=wrap;html=1;fontStyle=4" parent="1" vertex="1">
          <mxGeometry x="-790" y="160" width="60" height="40" as="geometry" />
        </mxCell>
        <mxCell id="S25aGv_purP_b8vN17h_-37" value="numLugares" style="rounded=0;whiteSpace=wrap;html=1;" parent="1" vertex="1">
          <mxGeometry x="-730" y="160" width="90" height="40" as="geometry" />
        </mxCell>
        <mxCell id="S25aGv_purP_b8vN17h_-38" value="portas" style="rounded=0;whiteSpace=wrap;html=1;" parent="1" vertex="1">
          <mxGeometry x="-640" y="160" width="70" height="40" as="geometry" />
        </mxCell>
        <mxCell id="S25aGv_purP_b8vN17h_-39" value="combustivel" style="rounded=0;whiteSpace=wrap;html=1;" parent="1" vertex="1">
          <mxGeometry x="-570" y="160" width="90" height="40" as="geometry" />
        </mxCell>
        <mxCell id="S25aGv_purP_b8vN17h_-41" value="TVcodigo" style="rounded=0;whiteSpace=wrap;html=1;" parent="1" vertex="1">
          <mxGeometry x="-480" y="160" width="80" height="40" as="geometry" />
        </mxCell>
        <mxCell id="S25aGv_purP_b8vN17h_-42" value="Pesado" style="rounded=0;whiteSpace=wrap;html=1;" parent="1" vertex="1">
          <mxGeometry x="-320" y="140" width="60" height="20" as="geometry" />
        </mxCell>
        <mxCell id="S25aGv_purP_b8vN17h_-43" value="id" style="rounded=0;whiteSpace=wrap;html=1;fontStyle=4" parent="1" vertex="1">
          <mxGeometry x="-320" y="160" width="60" height="40" as="geometry" />
        </mxCell>
        <mxCell id="S25aGv_purP_b8vN17h_-44" value="peso" style="rounded=0;whiteSpace=wrap;html=1;" parent="1" vertex="1">
          <mxGeometry x="-260" y="160" width="60" height="40" as="geometry" />
        </mxCell>
        <mxCell id="S25aGv_purP_b8vN17h_-45" value="passageiros" style="rounded=0;whiteSpace=wrap;html=1;" parent="1" vertex="1">
          <mxGeometry x="-200" y="160" width="80" height="40" as="geometry" />
        </mxCell>
        <mxCell id="UCRZe9t5fJFLGoO7BpiH-4" style="edgeStyle=orthogonalEdgeStyle;rounded=0;orthogonalLoop=1;jettySize=auto;html=1;" edge="1" parent="1" source="S25aGv_purP_b8vN17h_-47" target="S25aGv_purP_b8vN17h_-14">
          <mxGeometry relative="1" as="geometry">
            <Array as="points">
              <mxPoint x="-80" y="220" />
              <mxPoint x="-330" y="220" />
            </Array>
          </mxGeometry>
        </mxCell>
        <mxCell id="S25aGv_purP_b8vN17h_-47" value="TV-codigo" style="rounded=0;whiteSpace=wrap;html=1;" parent="1" vertex="1">
          <mxGeometry x="-120" y="160" width="80" height="40" as="geometry" />
        </mxCell>
        <mxCell id="S25aGv_purP_b8vN17h_-49" value="Cliente" style="rounded=0;whiteSpace=wrap;html=1;" parent="1" vertex="1">
          <mxGeometry x="-340" y="340" width="70" height="20" as="geometry" />
        </mxCell>
        <mxCell id="S25aGv_purP_b8vN17h_-59" style="edgeStyle=orthogonalEdgeStyle;rounded=0;orthogonalLoop=1;jettySize=auto;html=1;exitX=0.5;exitY=0;exitDx=0;exitDy=0;entryX=0.5;entryY=1;entryDx=0;entryDy=0;" parent="1" source="S25aGv_purP_b8vN17h_-23" target="S25aGv_purP_b8vN17h_-50" edge="1">
          <mxGeometry relative="1" as="geometry" />
        </mxCell>
        <mxCell id="S25aGv_purP_b8vN17h_-50" value="nif" style="rounded=0;whiteSpace=wrap;html=1;fontStyle=4" parent="1" vertex="1">
          <mxGeometry x="-340" y="360" width="70" height="40" as="geometry" />
        </mxCell>
        <mxCell id="S25aGv_purP_b8vN17h_-51" value="num_carta" style="rounded=0;whiteSpace=wrap;html=1;" parent="1" vertex="1">
          <mxGeometry x="-270" y="360" width="80" height="40" as="geometry" />
        </mxCell>
        <mxCell id="S25aGv_purP_b8vN17h_-52" value="endereco" style="rounded=0;whiteSpace=wrap;html=1;" parent="1" vertex="1">
          <mxGeometry x="-190" y="360" width="80" height="40" as="geometry" />
        </mxCell>
        <mxCell id="S25aGv_purP_b8vN17h_-53" value="nome" style="rounded=0;whiteSpace=wrap;html=1;" parent="1" vertex="1">
          <mxGeometry x="-110" y="360" width="60" height="40" as="geometry" />
        </mxCell>
      </root>
    </mxGraphModel>
  </diagram>
</mxfile>
